# AST/ASF file generated using VICON BodyLanguage
# -----------------------------------------------
:version 1.10
:name VICON
:units
  mass 1.0
  length 0.45
  angle deg
:documentation
   .ast/.asf automatically generated from VICON data using
   VICON BodyBuilder and BodyLanguage model FoxedUp or BRILLIANT.MOD
:root
   order TX TY TZ RX RY RZ
   axis XYZ
   position 0 0 0  
   orientation 0 -0 0 
:bonedata
  begin
     id 1 
     name lhipjoint
     direction 0.500677 -0.737119 0.453848 
     length 2.34727 
     axis 0 -0 0  XYZ
  end
  begin
     id 2 
     name lfemur
     direction 0.34202 -0.939693 0  
     length 7.53653  
     axis 0 -0 20  XYZ
    dof rx ry rz
    limits (-160.0 20.0)
           (-70.0 70.0)
           (-60.0 70.0)
  end
  begin
     id 3 
     name ltibia
     direction 0.34202 -0.939693 0   
     length 6.85572   
     axis 0 -0 20   XYZ
    dof rx
    limits (-10.0 170.0)
  end
  begin
     id 4 
     name lfoot
     direction 0.155313 -0.426718 0.890949   
     length 2.18324   
     axis -90 -1.13533e-015 20   XYZ
    dof rx rz
    limits (-45.0 90.0)
           (-70.0 20.0)
  end
  begin
     id 5 
     name ltoes
     direction 1.53474e-011 -4.21647e-011 1   
     length 1.06748   
     axis -90 -1.13533e-015 20   XYZ
    dof rx
    limits (-90.0 20.0)
  end
  begin
     id 6 
     name rhipjoint
     direction -0.632471 -0.659587 0.406111   
     length 2.62319  
     axis 0 -0 0  XYZ 
  end
  begin
     id 7 
     name rfemur
     direction -0.34202 -0.939693 0   
     length 7.21735   
     axis 0 -0 -20   XYZ
    dof rx ry rz
    limits (-160.0 20.0)
           (-70.0 70.0)
           (-70.0 60.0)
  end
  begin
     id 8 
     name rtibia
     direction -0.34202 -0.939693 0   
     length 7.02558   
     axis 0 -0 -20   XYZ
    dof rx
    limits (-10.0 170.0)
 end
 begin
     id 9 
     name rfoot
     direction -0.16057 -0.441164 0.882945   
     length 2.10014  
     axis -90 1.13533e-015 -20   XYZ
    dof rx rz
    limits (-45.0 90.0)
           (-20.0 70.0)
  end
  begin
     id 10 
     name rtoes
     direction -1.53553e-011 -4.2192e-011 1   
     length 1.02554   
     axis -90 1.13533e-015 -20   XYZ
    dof rx
    limits (-90.0 20.0)
  end
  begin
     id 11 
     name lowerback
     direction 0.0401429 0.998861 -0.0258085   
     length 1.80848   
     axis 0 -0 0   XYZ
    dof rx ry rz
    limits (-20.0 45.0)
           (-30.0 30.0)
           (-30.0 30.0)
  end
  begin
     id 12 
     name upperback
     direction -0.0130978 0.999914 -0.000352645   
     length 1.8116   
     axis 0 -0 0   XYZ
    dof rx ry rz
    limits (-20.0 45.0)
           (-30.0 30.0)
           (-30.0 30.0)
  end
  begin
     id 13 
     name thorax
     direction -0.0300198 0.999453 0.0138573   
     length 1.81778   
     axis 0 -0 0   XYZ
    dof rx ry rz
    limits (-20.0 45.0)
           (-30.0 30.0)
           (-30.0 30.0)
  end
  begin
     id 14 
     name lowerneck
     direction -0.0401726 0.999191 -0.00173647   
     length 2.10594   
     axis 0 -0 0   XYZ
    dof rx ry rz
    limits (-20.0 45.0)
           (-30.0 30.0)
           (-30.0 30.0)
  end
  begin
     id 15 
     name upperneck
     direction 0.0119835 0.998501 0.0534085   
     length 2.07325   
     axis 0 -0 0   XYZ
    dof rx ry rz
    limits (-20.0 45.0)
           (-30.0 30.0)
           (-30.0 30.0)
  end
  begin
     id 16
     name head
     direction 0.00628309 0.999826 0.0175921  
     length 2.15096  
     axis 0 -0 0   XYZ
    dof rx ry rz
    limits (-20.0 45.0)
           (-30.0 30.0)
           (-30.0 30.0)
  end
  begin
     id 17 
     name lclavicle
     direction 0.895501 0.429681 -0.115981  
     length 4.18092  
     axis 0 -0 0   XYZ
    dof ry rz
    limits (-20.0 10.0)
           (0.0 20.0)
  end
  begin
     id 18 
     name lhumerus
     direction 1 -4.48961e-011 -3.38433e-028   
     length 5.77237   
     axis 180 -30 -90   XYZ
    dof rx ry rz
    limits (-60.0 90.0)
           (-90.0 90.0)
           (-90.0 90.0)
  end
  begin
     id 19
     name lradius
     direction 1 -4.4901e-011 1.11983e-026   
     length 2.91878   
     axis 180 -30 -90   XYZ
    dof rx
    limits (-10.0 170.0)
  end
  begin
     id 20
     name lwrist
     direction 1 -4.48934e-011 1.88176e-026   
     length 1.45939   
     axis -1.23311e-014 90 90   XYZ
    dof ry
    limits (-180.0 0.0)
 end
  begin
     id 21 
     name lhand
     direction 1 -4.4895e-011 3.76352e-026   
     length 1.06566   
     axis -2.40147e-014 90 90   XYZ
    dof rx rz
    limits (-90.0 90.0)
           (-45.0 45.0)
  end
  begin
     id 22 
     name lfingers
     direction 1 -4.49005e-011 7.52705e-026   
     length 0.859162   
     axis -4.80295e-014 90 90   XYZ
    dof rx
    limits (0.0 90.0)
  end
  begin
     id 23
     name lthumb
     direction 0.707107 -6.34885e-011 0.707107   
     length 1.23359   
     axis -90 45 -9.86935e-015   XYZ
    dof rx rz
    limits (-45.0 45.0)
           (-45.0 45.0)
  end
  begin
     id 24 
     name rclavicle
     direction -0.91006 0.40451 -0.0903492   
     length 4.23293  
     axis 0 -0 0   XYZ 
    dof ry rz
    limits (-10.0 20.0)
           (-20.0 0.0)
  end
  begin
     id 25 
     name rhumerus
     direction -1 -4.4897e-011 1.7415e-027  
     length 5.49854   
     axis 180 30 90   XYZ
    dof rx ry rz
    limits (-90.0 60.0)
           (-90.0 90.0)
           (-90.0 90.0)
  end
  begin
     id 26 
     name rradius
     direction -1 -4.48963e-011 1.21259e-026   
     length 3.1186   
     axis 180 30 90   XYZ
    dof rx
    limits (-10.0 170.0)
  end
  begin
     id 27 
     name rwrist
     direction -1 -4.48967e-011 1.88176e-026   
     length 1.5593   
     axis -1.23311e-014 -90 -90   XYZ
    dof ry
    limits (-180.0 0.0)
  end
  begin
     id 28
     name rhand
     direction -1 -4.4895e-011 3.76352e-026   
     length 0.71207   
     axis -2.40147e-014 -90 -90   XYZ
    dof rx rz
    limits (-90.0 90.0)
           (-45.0 45.0)
  end
  begin
     id 29
     name rfingers
     direction -1 -4.49005e-011 7.52705e-026   
     length 0.574089   
     axis -4.80295e-014 -90 -90   XYZ
    dof rx
    limits (0.0 90.0)
  end
  begin
     id 30
     name rthumb
     direction -0.707107 -6.34982e-011 0.707107   
     length 0.824281   
     axis -90 -45 9.86935e-015   XYZ
    dof rx rz
    limits (-45.0 45.0)
           (-45.0 45.0)
  end
:hierarchy
  begin
    root lhipjoint rhipjoint lowerback
    lhipjoint lfemur
    lfemur ltibia
    ltibia lfoot
    lfoot ltoes
    rhipjoint rfemur
    rfemur rtibia
    rtibia rfoot
    rfoot rtoes
    lowerback upperback
    upperback thorax
    thorax lowerneck lclavicle rclavicle
    lowerneck upperneck
    upperneck head
    lclavicle lhumerus
    lhumerus lradius
    lradius lwrist
    lwrist lhand lthumb
    lhand lfingers
    rclavicle rhumerus
    rhumerus rradius
    rradius rwrist
    rwrist rhand rthumb
    rhand rfingers
  end

#!OML:ASF C:\ViconDB\ViconDB\414\Spring2016\042216\male.ASF
:FULLY-SPECIFIED
:DEGREES
47
root -33.5556 17.2145 14.0809 -158.86 84.416 -162.753
lowerback -3.05761 -1.41882 3.64261
upperback -0.282454 -2.00161 -0.673458
thorax 1.27463 -0.978443 -2.81387
lowerneck 0.326017 9.29438 0.910804
upperneck -3.22888 12.3222 -5.47247
head -0.638274 6.22605 -1.88685
rclavicle 6.47293e-015 -3.97569e-015
rhumerus -30.8942 -3.57341 -93.1661
rradius 26.4328
rwrist 33.9107
rhand 14.5235 -18.5884
rfingers 7.12502
rthumb 39.4029 -43.9918
lclavicle 6.47293e-015 -3.97569e-015
lhumerus -34.4096 13.4333 88.0366
lradius 32.3107
lwrist -15.4676
lhand -5.70829 12.1183
lfingers 7.12502
lthumb 20.1128 41.0973
rfemur -7.65291 12.4983 17.6001
rtibia 20.8854
rfoot -19.5634 -11.1545
rtoes -12.1638
lfemur -8.47743 -2.39151 -19.3592
ltibia 24.8791
lfoot -27.7439 15.7521
ltoes -14.655
48
root -33.5467 17.2184 14.0724 -158.641 84.46 -162.599
lowerback -3.00009 -1.35044 3.63685
upperback -0.346888 -1.90588 -0.736216
thorax 1.18139 -0.933298 -2.86899
lowerneck 0.407861 9.22692 1.08161
upperneck -3.19612 12.2337 -5.46067
head -0.635101 6.1797 -1.91412
rclavicle 1.18774e-014 4.37326e-015
rhumerus -30.9147 -3.75392 -93.22
rradius 26.34
rwrist 33.8876
rhand 14.2095 -18.454
rfingers 7.12502
rthumb 39.1071 -43.9433
lclavicle 1.18774e-014 4.37326e-015
lhumerus -34.5049 13.2449 88.0205
lradius 32.3367
lwrist -15.3673
lhand -5.72389 12.1367
lfingers 7.12502
lthumb 20.0978 41.1172
rfemur -7.66016 12.3976 17.5579
rtibia 20.7901
rfoot -19.5323 -11.1466
rtoes -12.386
lfemur -8.57414 -2.14999 -19.3701
ltibia 24.9532
lfoot -27.8495 15.532
ltoes -14.5129
49
root -33.5385 17.2253 14.0617 -157.15 84.36 -161.302
lowerback -3.11364 -1.32971 3.80318
upperback -0.39925 -1.88674 -0.738066
thorax 1.18717 -0.923432 -2.96601
lowerneck 0.302421 9.22421 1.10916
upperneck -3.07095 12.2356 -5.31971
head -0.585533 6.17502 -1.86404
rclavicle -5.82688e-015 5.1684e-015
rhumerus -30.8272 -4.21677 -93.1043
rradius 26.131
rwrist 34.5511
rhand 14.179 -18.0121
rfingers 7.12502
rthumb 39.0783 -43.5097
lclavicle -5.82688e-015 5.1684e-015
lhumerus -34.497 13.0684 88.0442
lradius 32.3539
lwrist -15.214
lhand -5.77471 12.2381
lfingers 7.12502
lthumb 20.0489 41.2237
rfemur -7.81161 12.3233 17.6577
rtibia 20.6902
rfoot -19.5286 -11.1306
rtoes -12.8717
lfemur -8.85341 -2.20245 -19.2055
ltibia 25.0295
lfoot -27.9342 15.3851
ltoes -14.1242
50
root -33.5267 17.2225 14.049 -158.395 84.3655 -162.515
lowerback -3.0902 -1.32623 3.65366
upperback -0.366208 -1.87651 -0.771255
thorax 1.21252 -0.918023 -2.91578
lowerneck 0.299451 9.19218 1.15526
upperneck -3.03266 12.1942 -5.34972
head -0.569759 6.15359 -1.87919
rclavicle 1.41883e-014 5.56597e-015
rhumerus -30.825 -3.76738 -93.3419
rradius 26.2271
rwrist 34.0751
rhand 14.2197 -18.7727
rfingers 7.12502
rthumb 39.1167 -44.2592
lclavicle 1.41883e-014 5.56597e-015
lhumerus -34.5126 13.0622 88.0839
lradius 32.4091
lwrist -15.0934
lhand -5.668 12.267
lfingers 7.12502
lthumb 20.1515 41.2418
rfemur -7.67044 12.1597 17.4888
rtibia 20.6409
rfoot -19.659 -11.0133
rtoes -13.1282
lfemur -8.77162 -2.16261 -19.38
ltibia 25.0731
lfoot -28.0544 15.2906
ltoes -14.0256
51
root -33.5202 17.2152 14.0324 -159.316 84.3653 -163.458
lowerback -3.01305 -1.32596 3.64708
upperback -0.332334 -1.87298 -0.839228
thorax 1.20233 -0.916067 -2.98036
lowerneck 0.126709 9.18455 1.24986
upperneck -2.94695 12.1878 -5.39847
head -0.505485 6.14673 -1.89596
rclavicle 1.50828e-014 -1.59028e-015
rhumerus -30.7591 -3.62581 -93.4591
rradius 26.2621
rwrist 34.0581
rhand 14.0429 -18.6728
rfingers 7.12502
rthumb 38.95 -44.2071
lclavicle 1.50828e-014 -1.59028e-015
lhumerus -34.4376 13.1151 88.088
lradius 32.4306
lwrist -15.0334
lhand -5.62923 11.9879
lfingers 7.12502
lthumb 20.1887 40.9588
rfemur -7.67135 11.8295 17.296
rtibia 20.6441
rfoot -19.8026 -10.7098
rtoes -13.2154
lfemur -8.72422 -2.119 -19.5521
ltibia 25.0861
lfoot -28.1472 15.3051
ltoes -14.2043
52
root -33.5131 17.208 14.0223 -159.203 84.3276 -163.375
lowerback -2.94299 -1.31854 3.62371
upperback -0.358606 -1.85925 -0.840046
thorax 1.13785 -0.911023 -2.96511
lowerneck 0.153547 9.16486 1.29258
upperneck -2.90906 12.1627 -5.42506
head -0.494714 6.13374 -1.91126
rclavicle 3.49116e-015 -3.18055e-015
rhumerus -30.7499 -3.86725 -93.3909
rradius 26.1601
rwrist 34.3116
rhand 14.1025 -18.7767
rfingers 7.12502
rthumb 39.0062 -44.295
lclavicle 3.49116e-015 -3.18055e-015
lhumerus -34.5017 13.0964 88.0919
lradius 32.4685
lwrist -15.0692
lhand -5.49205 12.1184
lfingers 7.12502
lthumb 20.3206 41.0754
rfemur -7.65837 11.6532 17.2641
rtibia 20.643
rfoot -19.9799 -10.5779
rtoes -12.9662
lfemur -8.72274 -1.867 -19.5528
ltibia 25.1079
lfoot -28.2251 15.0892
ltoes -14.342
